{
.appVersion = "983";
copyright = "Jason Murdock";
customParameters = (
{
name = license;
value = "This Font Software is licensed under the SIL Open Font License, Version 1.1. This license is available with a FAQ at: http://scripts.sil.org/OFL";
},
{
name = licenseURL;
value = "http://scripts.sil.org/OFL";
},
{
name = fsType;
value = (
);
},
{
name = "Disable Last Change";
value = 1;
},
{
name = "Use Line Breaks";
value = 1;
}
);
date = "2017-06-06 15:01:14 +0000";
designer = "Jason E. Murdock";
designerURL = "http://jasonmurdock.com";
disablesAutomaticAlignment = 1;
disablesNiceNames = 1;
familyName = "Trocchi Italic";
fontMaster = (
{
ascender = 1018;
capHeight = 735;
customParameters = (
{
name = typoAscender;
value = 1018;
},
{
name = typoDescender;
value = -281;
},
{
name = typoLineGap;
value = 0;
},
{
name = winAscent;
value = 1018;
},
{
name = winDescent;
value = 281;
},
{
name = hheaAscender;
value = 1018;
},
{
name = hheaDescender;
value = -281;
},
{
name = underlinePosition;
value = -100;
},
{
name = underlineThickness;
value = 50;
}
);
descender = -281;
guideLines = (
{
position = "{0, -196}";
},
{
position = "{0, -228}";
},
{
position = "{0, 536}";
},
{
position = "{0, -13}";
},
{
position = "{0, 750}";
}
);
horizontalStems = (
68
);
id = "FAAD249C-A758-4AF0-A41B-D5E315B1C41B";
italicAngle = 12;
weightValue = 400;
widthValue = 5;
xHeight = 524;
}
);
glyphs = (
{
glyphname = A;
layers = (
{
guideLines = (
{
angle = 100;
position = "{570, 639}";
}
);
layerId = "FAAD249C-A758-4AF0-A41B-D5E315B1C41B";
paths = (
{
closed = 1;
nodes = (
"254 0 LINE",
"269 70 LINE",
"146 70 LINE",
"247 246 LINE",
"519 246 LINE",
"540 70 LINE",
"426 70 LINE",
"411 0 LINE",
"748 0 LINE",
"763 70 LINE",
"660 70 LINE",
"570 735 LINE",
"469 735 LINE",
"51 70 LINE",
"-37 70 LINE",
"-52 0 LINE"
);
},
{
closed = 1;
nodes = (
"469 606 LINE",
"508 308 LINE",
"283 308 LINE"
);
}
);
width = 797;
}
);
unicode = 0041;
},
{
glyphname = B;
layers = (
{
guideLines = (
{
angle = 90;
position = "{548, 519}";
}
);
layerId = "FAAD249C-A758-4AF0-A41B-D5E315B1C41B";
paths = (
{
closed = 1;
nodes = (
"275 0 LINE SMOOTH",
"473 0 OFFCURVE",
"664 51 OFFCURVE",
"664 236 CURVE SMOOTH",
"664 312 OFFCURVE",
"625 367 OFFCURVE",
"526 395 CURVE",
"621 413 OFFCURVE",
"698 490 OFFCURVE",
"698 581 CURVE SMOOTH",
"698 699 OFFCURVE",
"577 735 OFFCURVE",
"437 735 CURVE SMOOTH",
"117 735 LINE",
"102 665 LINE",
"222 665 LINE",
"96 70 LINE",
"-24 70 LINE",
"-39 0 LINE"
);
},
{
closed = 1;
nodes = (
"272 356 LINE",
"378 356 LINE SMOOTH",
"490 356 OFFCURVE",
"548 318 OFFCURVE",
"548 236 CURVE SMOOTH",
"547 89 OFFCURVE",
"430 70 OFFCURVE",
"269 70 CURVE SMOOTH",
"211 70 LINE"
);
},
{
closed = 1;
nodes = (
"337 665 LINE",
"376 665 LINE SMOOTH",
"497 665 OFFCURVE",
"590 659 OFFCURVE",
"589 560 CURVE SMOOTH",
"589 470 OFFCURVE",
"496 421 OFFCURVE",
"391 421 CURVE SMOOTH",
"285 421 LINE"
);
}
);
width = 691;
}
);
leftMetricsKey = H;
rightMetricsKey = H;
unicode = 0042;
},
{
glyphname = C;
layers = (
{
background = {
paths = (
{
closed = 1;
nodes = (
"567 -13 OFFCURVE",
"761 218 OFFCURVE",
"761 466 CURVE SMOOTH",
"761 630 OFFCURVE",
"664 750 OFFCURVE",
"484 750 CURVE SMOOTH",
"239 750 OFFCURVE",
"45 518 OFFCURVE",
"45 270 CURVE SMOOTH",
"45 107 OFFCURVE",
"142 -13 OFFCURVE",
"322 -13 CURVE SMOOTH"
);
},
{
closed = 1;
nodes = (
"224 55 OFFCURVE",
"171 153 OFFCURVE",
"171 276 CURVE SMOOTH",
"171 462 OFFCURVE",
"300 682 OFFCURVE",
"470 682 CURVE SMOOTH",
"580 682 OFFCURVE",
"635 585 OFFCURVE",
"635 464 CURVE SMOOTH",
"635 271 OFFCURVE",
"506 55 OFFCURVE",
"337 55 CURVE SMOOTH"
);
}
);
};
guideLines = (
{
angle = 78;
position = "{722, 513}";
}
);
layerId = "FAAD249C-A758-4AF0-A41B-D5E315B1C41B";
paths = (
{
closed = 1;
nodes = (
"503 -13 OFFCURVE",
"613 108 OFFCURVE",
"659 229 CURVE",
"601 261 LINE",
"562 173 OFFCURVE",
"476 59 OFFCURVE",
"350 59 CURVE SMOOTH",
"201 59 OFFCURVE",
"149 206 OFFCURVE",
"184 373 CURVE SMOOTH",
"223 561 OFFCURVE",
"342 678 OFFCURVE",
"478 678 CURVE SMOOTH",
"560 678 OFFCURVE",
"612 643 OFFCURVE",
"630 594 CURVE",
"576 596 OFFCURVE",
"535 566 OFFCURVE",
"535 516 CURVE SMOOTH",
"535 465 OFFCURVE",
"575 440 OFFCURVE",
"619 440 CURVE SMOOTH",
"688 440 OFFCURVE",
"719 493 OFFCURVE",
"719 564 CURVE SMOOTH",
"719 674 OFFCURVE",
"616 750 OFFCURVE",
"493 750 CURVE SMOOTH",
"269 750 OFFCURVE",
"102 593 OFFCURVE",
"56 375 CURVE SMOOTH",
"11 166 OFFCURVE",
"118 -13 OFFCURVE",
"335 -13 CURVE SMOOTH"
);
}
);
width = 696;
}
);
leftMetricsKey = O;
unicode = 0043;
},
{
glyphname = D;
layers = (
{
guideLines = (
{
angle = 90;
position = "{635, 382}";
},
{
angle = 78;
position = "{615, 368}";
},
{
position = "{480, 0}";
},
{
position = "{1105, 735}";
},
{
position = "{871, 368}";
}
);
layerId = "FAAD249C-A758-4AF0-A41B-D5E315B1C41B";
paths = (
{
closed = 1;
nodes = (
"200 0 LINE SMOOTH",
"519 0 OFFCURVE",
"759 158 OFFCURVE",
"759 442 CURVE SMOOTH",
"759 657 OFFCURVE",
"589 735 OFFCURVE",
"338 735 CURVE SMOOTH",
"117 735 LINE",
"102 665 LINE",
"221 665 LINE",
"95 70 LINE",
"-24 70 LINE",
"-39 0 LINE"
);
},
{
closed = 1;
nodes = (
"336 664 LINE",
"525 664 OFFCURVE",
"634 613 OFFCURVE",
"634 442 CURVE SMOOTH",
"635 213 OFFCURVE",
"473 70 OFFCURVE",
"210 70 CURVE"
);
}
);
width = 763;
}
);
leftMetricsKey = H;
rightMetricsKey = O;
unicode = 0044;
},
{
glyphname = E;
layers = (
{
layerId = "FAAD249C-A758-4AF0-A41B-D5E315B1C41B";
paths = (
{
closed = 1;
nodes = (
"625 0 LINE",
"684 279 LINE",
"596 279 LINE",
"552 70 LINE",
"211 70 LINE",
"269 345 LINE",
"451 345 LINE",
"424 218 LINE",
"489 218 LINE",
"554 521 LINE",
"489 521 LINE",
"463 401 LINE",
"281 401 LINE",
"337 665 LINE",
"678 665 LINE",
"633 452 LINE",
"721 452 LINE",
"781 735 LINE",
"117 735 LINE",
"102 665 LINE",
"222 665 LINE",
"96 70 LINE",
"-24 70 LINE",
"-39 0 LINE"
);
}
);
width = 689;
}
);
leftMetricsKey = H;
unicode = 0045;
},
{
glyphname = F;
layers = (
{
layerId = "FAAD249C-A758-4AF0-A41B-D5E315B1C41B";
paths = (
{
closed = 1;
nodes = (
"344 0 LINE",
"359 70 LINE",
"210 70 LINE",
"270 354 LINE",
"446 354 LINE",
"420 230 LINE",
"487 230 LINE",
"547 515 LINE",
"480 515 LINE",
"458 412 LINE",
"282 412 LINE",
"336 665 LINE",
"668 665 LINE",
"626 467 LINE",
"715 467 LINE",
"772 735 LINE",
"117 735 LINE",
"102 665 LINE",
"221 665 LINE",
"95 70 LINE",
"-24 70 LINE",
"-39 0 LINE"
);
}
);
width = 679;
}
);
leftMetricsKey = H;
rightMetricsKey = E;
unicode = 0046;
},
{
glyphname = G;
layers = (
{
background = {
paths = (
{
closed = 1;
nodes = (
"503 -13 OFFCURVE",
"613 108 OFFCURVE",
"659 229 CURVE",
"601 261 LINE",
"562 173 OFFCURVE",
"476 59 OFFCURVE",
"350 59 CURVE SMOOTH",
"201 59 OFFCURVE",
"149 206 OFFCURVE",
"184 373 CURVE SMOOTH",
"223 561 OFFCURVE",
"342 678 OFFCURVE",
"478 678 CURVE SMOOTH",
"560 678 OFFCURVE",
"612 643 OFFCURVE",
"630 594 CURVE",
"576 596 OFFCURVE",
"535 566 OFFCURVE",
"535 516 CURVE SMOOTH",
"535 465 OFFCURVE",
"575 440 OFFCURVE",
"619 440 CURVE SMOOTH",
"688 440 OFFCURVE",
"719 493 OFFCURVE",
"719 564 CURVE SMOOTH",
"719 674 OFFCURVE",
"616 750 OFFCURVE",
"493 750 CURVE SMOOTH",
"269 750 OFFCURVE",
"102 593 OFFCURVE",
"56 375 CURVE SMOOTH",
"11 166 OFFCURVE",
"118 -13 OFFCURVE",
"335 -13 CURVE SMOOTH"
);
}
);
};
layerId = "FAAD249C-A758-4AF0-A41B-D5E315B1C41B";
paths = (
{
closed = 1;
nodes = (
"430 -13 OFFCURVE",
"492 19 OFFCURVE",
"563 84 CURVE",
"565 0 LINE",
"624 0 LINE",
"685 286 LINE",
"765 286 LINE",
"780 360 LINE",
"462 360 LINE",
"447 286 LINE",
"585 286 LINE",
"573 231 LINE SMOOTH",
"560 172 OFFCURVE",
"489 61 OFFCURVE",
"341 61 CURVE SMOOTH",
"200 61 OFFCURVE",
"149 214 OFFCURVE",
"183 372 CURVE SMOOTH",
"226 570 OFFCURVE",
"335 678 OFFCURVE",
"476 678 CURVE SMOOTH",
"574 678 OFFCURVE",
"635 643 OFFCURVE",
"656 594 CURVE",
"591 603 OFFCURVE",
"553 566 OFFCURVE",
"553 516 CURVE SMOOTH",
"553 465 OFFCURVE",
"593 440 OFFCURVE",
"632 440 CURVE SMOOTH",
"706 440 OFFCURVE",
"737 493 OFFCURVE",
"737 564 CURVE SMOOTH",
"737 674 OFFCURVE",
"634 750 OFFCURVE",
"491 750 CURVE SMOOTH",
"274 750 OFFCURVE",
"106 608 OFFCURVE",
"55 371 CURVE SMOOTH",
"10 161 OFFCURVE",
"115 -13 OFFCURVE",
"321 -13 CURVE SMOOTH"
);
}
);
width = 782;
}
);
leftMetricsKey = O;
unicode = 0047;
},
{
glyphname = H;
layers = (
{
layerId = "FAAD249C-A758-4AF0-A41B-D5E315B1C41B";
paths = (
{
closed = 1;
nodes = (
"307 0 LINE",
"322 70 LINE",
"210 70 LINE",
"270 354 LINE",
"578 354 LINE",
"518 70 LINE",
"405 70 LINE",
"390 0 LINE",
"737 0 LINE",
"752 70 LINE",
"633 70 LINE",
"759 665 LINE",
"878 665 LINE",
"893 735 LINE",
"546 735 LINE",
"531 665 LINE",
"644 665 LINE",
"591 416 LINE",
"283 416 LINE",
"336 665 LINE",
"448 665 LINE",
"463 735 LINE",
"117 735 LINE",
"102 665 LINE",
"221 665 LINE",
"95 70 LINE",
"-24 70 LINE",
"-39 0 LINE"
);
}
);
width = 809;
}
);
unicode = 0048;
},
{
glyphname = I;
layers = (
{
layerId = "FAAD249C-A758-4AF0-A41B-D5E315B1C41B";
paths = (
{
closed = 1;
nodes = (
"307 0 LINE",
"322 70 LINE",
"210 70 LINE",
"336 665 LINE",
"448 665 LINE",
"463 735 LINE",
"117 735 LINE",
"102 665 LINE",
"221 665 LINE",
"95 70 LINE",
"-24 70 LINE",
"-39 0 LINE"
);
}
);
width = 379;
}
);
leftMetricsKey = H;
rightMetricsKey = H;
unicode = 0049;
},
{
glyphname = J;
layers = (
{
layerId = "FAAD249C-A758-4AF0-A41B-D5E315B1C41B";
paths = (
{
closed = 1;
nodes = (
"265 -228 OFFCURVE",
"348 -134 OFFCURVE",
"384 35 CURVE SMOOTH",
"518 665 LINE",
"634 665 LINE",
"649 735 LINE",
"281 735 LINE",
"266 665 LINE",
"403 665 LINE",
"266 22 LINE SMOOTH",
"242 -93 OFFCURVE",
"212 -173 OFFCURVE",
"110 -173 CURVE SMOOTH",
"79 -173 OFFCURVE",
"36 -161 OFFCURVE",
"28 -143 CURVE",
"59 -143 OFFCURVE",
"100 -117 OFFCURVE",
"100 -61 CURVE SMOOTH",
"100 -14 OFFCURVE",
"59 17 OFFCURVE",
"16 17 CURVE SMOOTH",
"-29 17 OFFCURVE",
"-70 -14 OFFCURVE",
"-70 -80 CURVE SMOOTH",
"-70 -152 OFFCURVE",
"-16 -228 OFFCURVE",
"113 -228 CURVE SMOOTH"
);
}
);
width = 548;
}
);
unicode = 004A;
},
{
glyphname = K;
layers = (
{
guideLines = (
{
angle = -64;
position = "{233, 665}";
},
{
angle = 77.9052;
position = "{862, 735}";
},
{
angle = -61;
position = "{336, 665}";
}
);
layerId = "FAAD249C-A758-4AF0-A41B-D5E315B1C41B";
paths = (
{
closed = 1;
nodes = (
"298 0 LINE",
"313 70 LINE",
"210 70 LINE",
"252 270 LINE",
"380 363 LINE",
"523 70 LINE",
"423 70 LINE",
"408 0 LINE",
"735 0 LINE",
"750 70 LINE",
"661 70 LINE",
"472 420 LINE",
"755 665 LINE",
"847 665 LINE",
"862 735 LINE",
"535 735 LINE",
"520 665 LINE",
"632 665 LINE",
"453 507 OFFCURVE",
"351 417 OFFCURVE",
"329 399 CURVE SMOOTH",
"319 391 OFFCURVE",
"278 361 OFFCURVE",
"271 359 CURVE",
"336 665 LINE",
"439 665 LINE",
"454 735 LINE",
"117 735 LINE",
"102 665 LINE",
"221 665 LINE",
"95 70 LINE",
"-24 70 LINE",
"-39 0 LINE"
);
}
);
width = 795;
}
);
leftMetricsKey = H;
rightMetricsKey = V;
unicode = 004B;
},
{
glyphname = L;
layers = (
{
layerId = "FAAD249C-A758-4AF0-A41B-D5E315B1C41B";
paths = (
{
closed = 1;
nodes = (
"562 0 LINE",
"627 305 LINE",
"536 305 LINE",
"486 70 LINE",
"210 70 LINE",
"336 665 LINE",
"448 665 LINE",
"463 735 LINE",
"117 735 LINE",
"102 665 LINE",
"221 665 LINE",
"95 70 LINE",
"-24 70 LINE",
"-39 0 LINE"
);
}
);
width = 622;
}
);
leftMetricsKey = H;
unicode = 004C;
},
{
glyphname = M;
layers = (
{
guideLines = (
{
position = "{433, 106}";
}
);
layerId = "FAAD249C-A758-4AF0-A41B-D5E315B1C41B";
paths = (
{
closed = 1;
nodes = (
"285 0 LINE",
"300 70 LINE",
"177 70 LINE",
"303 664 LINE",
"406 106 LINE",
"465 106 LINE",
"778 649 LINE",
"655 70 LINE",
"548 70 LINE",
"533 0 LINE",
"871 0 LINE",
"886 70 LINE",
"765 70 LINE",
"891 665 LINE",
"1005 665 LINE",
"1020 735 LINE",
"745 735 LINE",
"485 272 LINE",
"409 735 LINE",
"113 735 LINE",
"98 665 LINE",
"214 665 LINE",
"88 70 LINE",
"-19 70 LINE",
"-34 0 LINE"
);
}
);
width = 931;
}
);
leftMetricsKey = N;
rightMetricsKey = N;
unicode = 004D;
},
{
glyphname = N;
layers = (
{
layerId = "FAAD249C-A758-4AF0-A41B-D5E315B1C41B";
paths = (
{
closed = 1;
nodes = (
"280 0 LINE",
"295 70 LINE",
"183 70 LINE",
"302 631 LINE",
"531 0 LINE",
"661 0 LINE",
"802 665 LINE",
"914 665 LINE",
"929 735 LINE",
"605 735 LINE",
"590 665 LINE",
"709 665 LINE",
"596 130 LINE",
"377 735 LINE",
"113 735 LINE",
"98 665 LINE",
"216 665 LINE",
"90 70 LINE",
"-28 70 LINE",
"-43 0 LINE"
);
}
);
width = 832;
}
);
unicode = 004E;
},
{
glyphname = O;
layers = (
{
layerId = "FAAD249C-A758-4AF0-A41B-D5E315B1C41B";
paths = (
{
closed = 1;
nodes = (
"567 -13 OFFCURVE",
"761 218 OFFCURVE",
"761 466 CURVE SMOOTH",
"761 630 OFFCURVE",
"664 750 OFFCURVE",
"484 750 CURVE SMOOTH",
"239 750 OFFCURVE",
"45 518 OFFCURVE",
"45 270 CURVE SMOOTH",
"45 107 OFFCURVE",
"142 -13 OFFCURVE",
"322 -13 CURVE SMOOTH"
);
},
{
closed = 1;
nodes = (
"224 55 OFFCURVE",
"171 153 OFFCURVE",
"171 276 CURVE SMOOTH",
"171 462 OFFCURVE",
"300 682 OFFCURVE",
"470 682 CURVE SMOOTH",
"580 682 OFFCURVE",
"635 585 OFFCURVE",
"635 464 CURVE SMOOTH",
"635 271 OFFCURVE",
"506 55 OFFCURVE",
"337 55 CURVE SMOOTH"
);
}
);
width = 760;
}
);
unicode = 004F;
},
{
glyphname = P;
layers = (
{
guideLines = (
{
angle = 78;
position = "{241, 220}";
},
{
angle = 78;
position = "{525, 220}";
},
{
angle = 78;
position = "{707, 519}";
}
);
layerId = "FAAD249C-A758-4AF0-A41B-D5E315B1C41B";
paths = (
{
closed = 1;
nodes = (
"317 0 LINE",
"332 70 LINE",
"210 70 LINE",
"258 300 LINE",
"285 300 OFFCURVE",
"311 300 OFFCURVE",
"327 300 CURVE SMOOTH",
"528 300 OFFCURVE",
"698 377 OFFCURVE",
"706 540 CURVE SMOOTH",
"715 723 OFFCURVE",
"535 735 OFFCURVE",
"350 735 CURVE SMOOTH",
"117 735 LINE",
"102 665 LINE",
"221 665 LINE",
"95 70 LINE",
"-24 70 LINE",
"-39 0 LINE"
);
},
{
closed = 1;
nodes = (
"336 665 LINE",
"464 665 OFFCURVE",
"598 665 OFFCURVE",
"588 535 CURVE SMOOTH",
"578 410 OFFCURVE",
"452 363 OFFCURVE",
"344 363 CURVE SMOOTH",
"327 363 OFFCURVE",
"299 363 OFFCURVE",
"271 363 CURVE"
);
}
);
width = 666;
}
);
leftMetricsKey = H;
rightMetricsKey = H;
unicode = 0050;
},
{
glyphname = Q;
layers = (
{
background = {
paths = (
{
closed = 1;
nodes = (
"700 -108 OFFCURVE",
"777 -31 OFFCURVE",
"777 123 CURVE",
"718 123 LINE",
"718 41 OFFCURVE",
"673 -10 OFFCURVE",
"620 -14 CURVE",
"582 -14 OFFCURVE",
"555 -1 OFFCURVE",
"542 57 CURVE",
"649 125 OFFCURVE",
"727 252 OFFCURVE",
"748 368 CURVE SMOOTH",
"787 585 OFFCURVE",
"691 750 OFFCURVE",
"482 750 CURVE SMOOTH",
"269 750 OFFCURVE",
"99 581 OFFCURVE",
"54 368 CURVE SMOOTH",
"9 157 OFFCURVE",
"106 -13 OFFCURVE",
"320 -13 CURVE SMOOTH",
"366 -13 OFFCURVE",
"396 -8 OFFCURVE",
"435 5 CURVE",
"457 -77 OFFCURVE",
"524 -108 OFFCURVE",
"585 -108 CURVE SMOOTH"
);
},
{
closed = 1;
nodes = (
"496 195 OFFCURVE",
"433 245 OFFCURVE",
"351 245 CURVE SMOOTH",
"282 245 OFFCURVE",
"215 205 OFFCURVE",
"201 135 CURVE",
"169 186 OFFCURVE",
"161 283 OFFCURVE",
"179 369 CURVE SMOOTH",
"211 524 OFFCURVE",
"323 682 OFFCURVE",
"468 682 CURVE SMOOTH",
"606 682 OFFCURVE",
"657 528 OFFCURVE",
"619 347 CURVE SMOOTH",
"605 282 OFFCURVE",
"565 186 OFFCURVE",
"512 131 CURVE"
);
},
{
closed = 1;
nodes = (
"288 45 OFFCURVE",
"244 78 OFFCURVE",
"232 94 CURVE",
"239 173 OFFCURVE",
"298 183 OFFCURVE",
"322 183 CURVE SMOOTH",
"379 183 OFFCURVE",
"415 134 OFFCURVE",
"422 64 CURVE",
"394 52 OFFCURVE",
"366 45 OFFCURVE",
"335 45 CURVE SMOOTH"
);
}
);
};
layerId = "FAAD249C-A758-4AF0-A41B-D5E315B1C41B";
paths = (
{
closed = 1;
nodes = (
"674 -118 OFFCURVE",
"736 -51 OFFCURVE",
"762 73 CURVE",
"703 73 LINE",
"690 12 OFFCURVE",
"657 -24 OFFCURVE",
"616 -24 CURVE SMOOTH",
"588 -24 OFFCURVE",
"561 -7 OFFCURVE",
"552 59 CURVE",
"651 129 OFFCURVE",
"723 247 OFFCURVE",
"749 368 CURVE SMOOTH",
"795 584 OFFCURVE",
"692 750 OFFCURVE",
"483 750 CURVE SMOOTH",
"270 750 OFFCURVE",
"100 581 OFFCURVE",
"55 368 CURVE SMOOTH",
"10 157 OFFCURVE",
"108 -13 OFFCURVE",
"321 -13 CURVE SMOOTH",
"367 -13 OFFCURVE",
"410 -6 OFFCURVE",
"449 7 CURVE",
"474 -75 OFFCURVE",
"508 -118 OFFCURVE",
"584 -118 CURVE SMOOTH"
);
},
{
closed = 1;
nodes = (
"264 55 OFFCURVE",
"211 85 OFFCURVE",
"216 109 CURVE",
"223 158 OFFCURVE",
"279 183 OFFCURVE",
"313 183 CURVE SMOOTH",
"370 183 OFFCURVE",
"407 146 OFFCURVE",
"423 74 CURVE",
"395 62 OFFCURVE",
"367 55 OFFCURVE",
"336 55 CURVE SMOOTH"
);
},
{
closed = 1;
nodes = (
"488 207 OFFCURVE",
"425 245 OFFCURVE",
"353 245 CURVE SMOOTH",
"264 245 OFFCURVE",
"204 194 OFFCURVE",
"189 154 CURVE",
"167 210 OFFCURVE",
"164 291 OFFCURVE",
"180 369 CURVE SMOOTH",
"212 523 OFFCURVE",
"324 682 OFFCURVE",
"469 682 CURVE SMOOTH",
"607 682 OFFCURVE",
"659 529 OFFCURVE",
"624 367 CURVE SMOOTH",
"606 283 OFFCURVE",
"566 196 OFFCURVE",
"513 141 CURVE"
);
}
);
width = 790;
}
);
leftMetricsKey = O;
unicode = 0051;
},
{
glyphname = R;
layers = (
{
background = {
paths = (
{
closed = 1;
nodes = (
"689 -16 OFFCURVE",
"746 70 OFFCURVE",
"746 230 CURVE",
"680 230 LINE",
"680 118 OFFCURVE",
"664 70 OFFCURVE",
"622 70 CURVE SMOOTH",
"588 70 OFFCURVE",
"574 108 OFFCURVE",
"576 194 CURVE SMOOTH",
"578 274 OFFCURVE",
"562 343 OFFCURVE",
"485 360 CURVE",
"611 366 OFFCURVE",
"712 453 OFFCURVE",
"710 574 CURVE SMOOTH",
"708 719 OFFCURVE",
"569 735 OFFCURVE",
"398 735 CURVE SMOOTH",
"117 735 LINE",
"102 665 LINE",
"221 665 LINE",
"95 70 LINE",
"-24 70 LINE",
"-39 0 LINE",
"306 0 LINE",
"321 70 LINE",
"210 70 LINE",
"266 335 LINE",
"381 335 LINE SMOOTH",
"449 335 OFFCURVE",
"456 279 OFFCURVE",
"456 215 CURVE SMOOTH",
"456 86 OFFCURVE",
"467 -16 OFFCURVE",
"587 -16 CURVE SMOOTH"
);
},
{
closed = 1;
nodes = (
"336 665 LINE",
"493 665 OFFCURVE",
"605 663 OFFCURVE",
"605 573 CURVE SMOOTH",
"605 442 OFFCURVE",
"485 408 OFFCURVE",
"343 408 CURVE SMOOTH",
"282 408 LINE"
);
}
);
};
guideLines = (
{
angle = 90;
position = "{605, 364}";
}
);
layerId = "FAAD249C-A758-4AF0-A41B-D5E315B1C41B";
paths = (
{
closed = 1;
nodes = (
"684 -16 OFFCURVE",
"744 42 OFFCURVE",
"744 162 CURVE",
"744 187 LINE",
"678 187 LINE",
"678 162 LINE",
"678 111 OFFCURVE",
"663 70 OFFCURVE",
"620 70 CURVE SMOOTH",
"576 70 OFFCURVE",
"581 126 OFFCURVE",
"574 235 CURVE SMOOTH",
"570 301 OFFCURVE",
"543 348 OFFCURVE",
"485 360 CURVE",
"591 369 OFFCURVE",
"692 430 OFFCURVE",
"706 542 CURVE SMOOTH",
"726 703 OFFCURVE",
"596 735 OFFCURVE",
"398 735 CURVE SMOOTH",
"117 735 LINE",
"102 665 LINE",
"221 665 LINE",
"95 70 LINE",
"-24 70 LINE",
"-39 0 LINE",
"306 0 LINE",
"321 70 LINE",
"210 70 LINE",
"266 335 LINE",
"381 335 LINE SMOOTH",
"448 335 OFFCURVE",
"458 280 OFFCURVE",
"456 215 CURVE SMOOTH",
"451 83 OFFCURVE",
"470 -16 OFFCURVE",
"587 -16 CURVE SMOOTH"
);
},
{
closed = 1;
nodes = (
"336 665 LINE",
"393 665 LINE SMOOTH",
"530 665 OFFCURVE",
"614 649 OFFCURVE",
"603 542 CURVE SMOOTH",
"591 430 OFFCURVE",
"469 408 OFFCURVE",
"343 408 CURVE SMOOTH",
"282 408 LINE"
);
}
);
width = 773;
}
);
leftMetricsKey = H;
unicode = 0052;
},
{
glyphname = S;
layers = (
{
guideLines = (
{
angle = 78;
position = "{58, 380}";
}
);
layerId = "FAAD249C-A758-4AF0-A41B-D5E315B1C41B";
paths = (
{
closed = 1;
nodes = (
"457 -13 OFFCURVE",
"597 74 OFFCURVE",
"597 204 CURVE SMOOTH",
"597 330 OFFCURVE",
"500 379 OFFCURVE",
"354 429 CURVE SMOOTH",
"279 455 OFFCURVE",
"205 485 OFFCURVE",
"204 550 CURVE SMOOTH",
"203 638 OFFCURVE",
"311 682 OFFCURVE",
"393 682 CURVE SMOOTH",
"484 682 OFFCURVE",
"543 647 OFFCURVE",
"574 616 CURVE",
"538 621 OFFCURVE",
"492 590 OFFCURVE",
"492 543 CURVE SMOOTH",
"492 497 OFFCURVE",
"529 471 OFFCURVE",
"577 471 CURVE SMOOTH",
"630 471 OFFCURVE",
"661 512 OFFCURVE",
"661 564 CURVE SMOOTH",
"661 670 OFFCURVE",
"536 750 OFFCURVE",
"385 750 CURVE SMOOTH",
"248 750 OFFCURVE",
"90 663 OFFCURVE",
"90 523 CURVE SMOOTH",
"90 419 OFFCURVE",
"171 375 OFFCURVE",
"305 322 CURVE SMOOTH",
"408 281 OFFCURVE",
"486 250 OFFCURVE",
"485 174 CURVE SMOOTH",
"484 99 OFFCURVE",
"393 55 OFFCURVE",
"303 55 CURVE SMOOTH",
"193 55 OFFCURVE",
"138 98 OFFCURVE",
"119 130 CURVE",
"162 135 OFFCURVE",
"192 158 OFFCURVE",
"191 212 CURVE SMOOTH",
"190 248 OFFCURVE",
"161 282 OFFCURVE",
"107 282 CURVE SMOOTH",
"65 282 OFFCURVE",
"20 248 OFFCURVE",
"20 189 CURVE SMOOTH",
"20 87 OFFCURVE",
"131 -13 OFFCURVE",
"304 -13 CURVE SMOOTH"
);
}
);
width = 636;
}
);
unicode = 0053;
},
{
glyphname = T;
layers = (
{
layerId = "FAAD249C-A758-4AF0-A41B-D5E315B1C41B";
paths = (
{
closed = 1;
nodes = (
"459 0 LINE",
"474 70 LINE",
"357 70 LINE",
"483 665 LINE",
"666 665 LINE",
"618 438 LINE",
"709 438 LINE",
"772 735 LINE",
"105 735 LINE",
"42 438 LINE",
"133 438 LINE",
"181 665 LINE",
"368 665 LINE",
"242 70 LINE",
"128 70 LINE",
"113 0 LINE"
);
}
);
width = 676;
}
);
unicode = 0054;
},
{
glyphname = U;
layers = (
{
layerId = "FAAD249C-A758-4AF0-A41B-D5E315B1C41B";
paths = (
{
closed = 1;
nodes = (
"527 -13 OFFCURVE",
"639 80 OFFCURVE",
"679 267 CURVE SMOOTH",
"763 665 LINE",
"865 665 LINE",
"880 735 LINE",
"568 735 LINE",
"553 665 LINE",
"664 665 LINE",
"577 253 LINE SMOOTH",
"550 128 OFFCURVE",
"474 60 OFFCURVE",
"365 60 CURVE SMOOTH",
"253 60 OFFCURVE",
"208 127 OFFCURVE",
"234 250 CURVE SMOOTH",
"322 665 LINE",
"430 665 LINE",
"445 735 LINE",
"117 735 LINE",
"102 665 LINE",
"207 665 LINE",
"119 252 LINE SMOOTH",
"84 87 OFFCURVE",
"160 -13 OFFCURVE",
"338 -13 CURVE SMOOTH"
);
}
);
width = 791;
}
);
leftMetricsKey = H;
unicode = 0055;
},
{
glyphname = V;
layers = (
{
layerId = "FAAD249C-A758-4AF0-A41B-D5E315B1C41B";
paths = (
{
closed = 1;
nodes = (
"401 0 LINE",
"770 665 LINE",
"889 665 LINE",
"904 735 LINE",
"573 735 LINE",
"558 665 LINE",
"687 665 LINE",
"404 143 LINE",
"337 665 LINE",
"440 665 LINE",
"455 735 LINE",
"105 735 LINE",
"90 665 LINE",
"202 665 LINE",
"300 0 LINE"
);
}
);
width = 807;
}
);
unicode = 0056;
},
{
glyphname = W;
layers = (
{
layerId = "FAAD249C-A758-4AF0-A41B-D5E315B1C41B";
paths = (
{
closed = 1;
nodes = (
"367 0 LINE",
"610 494 LINE",
"649 0 LINE",
"741 0 LINE",
"1066 665 LINE",
"1155 665 LINE",
"1170 735 LINE",
"899 735 LINE",
"884 665 LINE",
"983 665 LINE",
"741 150 LINE",
"708 665 LINE",
"610 665 LINE",
"360 150 LINE",
"327 665 LINE",
"430 665 LINE",
"445 735 LINE",
"105 735 LINE",
"90 665 LINE",
"202 665 LINE",
"266 0 LINE"
);
}
);
width = 1073;
}
);
leftMetricsKey = V;
rightMetricsKey = V;
unicode = 0057;
},
{
glyphname = X;
layers = (
{
layerId = "FAAD249C-A758-4AF0-A41B-D5E315B1C41B";
paths = (
{
closed = 1;
nodes = (
"264 0 LINE",
"279 70 LINE",
"176 70 LINE",
"410 297 LINE",
"536 70 LINE",
"428 70 LINE",
"413 0 LINE",
"762 0 LINE",
"777 70 LINE",
"670 70 LINE",
"497 383 LINE",
"784 665 LINE",
"896 665 LINE",
"911 735 LINE",
"565 735 LINE",
"550 665 LINE",
"671 665 LINE",
"458 457 LINE",
"345 665 LINE",
"457 665 LINE",
"472 735 LINE",
"107 735 LINE",
"92 665 LINE",
"211 665 LINE",
"371 371 LINE",
"61 70 LINE",
"-37 70 LINE",
"-52 0 LINE"
);
}
);
width = 822;
}
);
leftMetricsKey = V;
rightMetricsKey = V;
unicode = 0058;
},
{
glyphname = Y;
layers = (
{
layerId = "FAAD249C-A758-4AF0-A41B-D5E315B1C41B";
paths = (
{
closed = 1;
nodes = (
"487 0 LINE",
"502 70 LINE",
"390 70 LINE",
"436 288 LINE",
"735 665 LINE",
"827 665 LINE",
"842 735 LINE",
"546 735 LINE",
"531 665 LINE",
"640 665 LINE",
"406 362 LINE",
"305 665 LINE",
"417 665 LINE",
"432 735 LINE",
"105 735 LINE",
"90 665 LINE",
"190 665 LINE",
"322 291 LINE",
"275 70 LINE",
"156 70 LINE",
"141 0 LINE"
);
}
);
width = 745;
}
);
leftMetricsKey = V;
rightMetricsKey = V;
unicode = 0059;
},
{
glyphname = Z;
layers = (
{
layerId = "FAAD249C-A758-4AF0-A41B-D5E315B1C41B";
paths = (
{
closed = 1;
nodes = (
"531 0 LINE",
"592 288 LINE",
"501 288 LINE",
"455 70 LINE",
"108 70 LINE",
"653 652 LINE",
"651 735 LINE",
"126 735 LINE",
"68 462 LINE",
"159 462 LINE",
"203 668 LINE",
"529 668 LINE",
"-21 81 LINE",
"-22 81 LINE",
"-27 0 LINE"
);
}
);
width = 603;
}
);
leftMetricsKey = H;
rightMetricsKey = H;
unicode = 005A;
},
{
glyphname = a;
layers = (
{
guideLines = (
{
angle = 78;
position = "{517, 138}";
},
{
angle = 78;
position = "{348, 95}";
},
{
angle = -18;
position = "{527, 186}";
}
);
layerId = "FAAD249C-A758-4AF0-A41B-D5E315B1C41B";
paths = (
{
closed = 1;
nodes = (
"517 138 LINE",
"505 81 OFFCURVE",
"493 46 OFFCURVE",
"459 46 CURVE SMOOTH",
"428 46 OFFCURVE",
"432 93 OFFCURVE",
"442 138 CURVE",
"525 524 LINE",
"472 524 LINE",
"417 418 LINE",
"410 507 OFFCURVE",
"346 538 OFFCURVE",
"291 538 CURVE SMOOTH",
"177 538 OFFCURVE",
"70 426 OFFCURVE",
"36 262 CURVE SMOOTH",
"3 103 OFFCURVE",
"58 -13 OFFCURVE",
"175 -13 CURVE SMOOTH",
"249 -13 OFFCURVE",
"314 33 OFFCURVE",
"348 95 CURVE",
"352 95 LINE",
"352 39 OFFCURVE",
"371 -13 OFFCURVE",
"439 -13 CURVE SMOOTH",
"508 -13 OFFCURVE",
"547 29 OFFCURVE",
"570 137 CURVE",
"577 170 LINE",
"527 186 LINE"
);
},
{
closed = 1;
nodes = (
"138 49 OFFCURVE",
"123 151 OFFCURVE",
"146 256 CURVE SMOOTH",
"172 376 OFFCURVE",
"215 480 OFFCURVE",
"299 480 CURVE SMOOTH",
"382 480 OFFCURVE",
"390 380 OFFCURVE",
"363 256 CURVE SMOOTH",
"335 127 OFFCURVE",
"276 49 OFFCURVE",
"208 49 CURVE SMOOTH"
);
}
);
width = 597;
}
);
unicode = 0061;
},
{
glyphname = b;
layers = (
{
layerId = "FAAD249C-A758-4AF0-A41B-D5E315B1C41B";
paths = (
{
closed = 1;
nodes = (
"63 0 LINE",
"112 0 LINE",
"190 106 LINE",
"190 17 OFFCURVE",
"261 -14 OFFCURVE",
"316 -14 CURVE SMOOTH",
"430 -14 OFFCURVE",
"537 98 OFFCURVE",
"571 262 CURVE SMOOTH",
"604 421 OFFCURVE",
"549 537 OFFCURVE",
"432 537 CURVE SMOOTH",
"358 537 OFFCURVE",
"293 491 OFFCURVE",
"259 429 CURVE",
"255 429 LINE",
"321 735 LINE",
"125 735 LINE",
"112 675 LINE",
"208 675 LINE"
);
},
{
closed = 1;
nodes = (
"467 475 OFFCURVE",
"484 373 OFFCURVE",
"461 268 CURVE SMOOTH",
"435 148 OFFCURVE",
"390 44 OFFCURVE",
"303 44 CURVE SMOOTH",
"210 44 OFFCURVE",
"207 144 OFFCURVE",
"234 268 CURVE SMOOTH",
"262 397 OFFCURVE",
"326 475 OFFCURVE",
"394 475 CURVE SMOOTH"
);
}
);
width = 607;
}
);
leftMetricsKey = n;
rightMetricsKey = o;
unicode = 0062;
},
{
glyphname = c;
layers = (
{
guideLines = (
{
angle = 90;
position = "{497, 386}";
},
{
angle = 162.3499;
position = "{435, 167}";
}
);
layerId = "FAAD249C-A758-4AF0-A41B-D5E315B1C41B";
paths = (
{
closed = 1;
nodes = (
"369 484 OFFCURVE",
"404 459 OFFCURVE",
"418 425 CURVE",
"368 435 OFFCURVE",
"329 401 OFFCURVE",
"329 358 CURVE SMOOTH",
"329 316 OFFCURVE",
"359 289 OFFCURVE",
"407 289 CURVE SMOOTH",
"461 289 OFFCURVE",
"487 337 OFFCURVE",
"487 380 CURVE SMOOTH",
"487 486 OFFCURVE",
"409 539 OFFCURVE",
"312 539 CURVE SMOOTH",
"120 539 OFFCURVE",
"32 361 OFFCURVE",
"32 197 CURVE SMOOTH",
"32 78 OFFCURVE",
"97 -13 OFFCURVE",
"232 -13 CURVE SMOOTH",
"341 -13 OFFCURVE",
"414 50 OFFCURVE",
"457 160 CURVE",
"413 174 LINE",
"381 97 OFFCURVE",
"322 49 OFFCURVE",
"257 49 CURVE SMOOTH",
"176 49 OFFCURVE",
"140 103 OFFCURVE",
"140 207 CURVE SMOOTH",
"140 303 OFFCURVE",
"199 484 OFFCURVE",
"318 484 CURVE SMOOTH"
);
}
);
width = 503;
}
);
leftMetricsKey = o;
unicode = 0063;
},
{
glyphname = d;
layers = (
{
guideLines = (
{
angle = 78;
position = "{452, 675}";
},
{
angle = 78;
position = "{192, 477}";
},
{
angle = -18;
position = "{527, 186}";
}
);
layerId = "FAAD249C-A758-4AF0-A41B-D5E315B1C41B";
paths = (
{
closed = 1;
nodes = (
"516 -13 OFFCURVE",
"548 29 OFFCURVE",
"572 137 CURVE",
"578 171 LINE",
"530 187 LINE",
"519 138 LINE",
"506 81 OFFCURVE",
"497 46 OFFCURVE",
"465 46 CURVE SMOOTH",
"429 46 OFFCURVE",
"432 93 OFFCURVE",
"442 138 CURVE SMOOTH",
"570 735 LINE",
"369 735 LINE",
"356 675 LINE",
"452 675 LINE",
"405 455 LINE",
"390 517 OFFCURVE",
"346 538 OFFCURVE",
"291 538 CURVE SMOOTH",
"177 538 OFFCURVE",
"70 426 OFFCURVE",
"36 262 CURVE SMOOTH",
"3 103 OFFCURVE",
"58 -13 OFFCURVE",
"175 -13 CURVE SMOOTH",
"249 -13 OFFCURVE",
"314 33 OFFCURVE",
"348 95 CURVE",
"352 95 LINE",
"352 39 OFFCURVE",
"385 -13 OFFCURVE",
"447 -13 CURVE SMOOTH"
);
},
{
closed = 1;
nodes = (
"138 49 OFFCURVE",
"123 151 OFFCURVE",
"146 256 CURVE SMOOTH",
"172 376 OFFCURVE",
"215 480 OFFCURVE",
"299 480 CURVE SMOOTH",
"382 480 OFFCURVE",
"395 380 OFFCURVE",
"368 256 CURVE SMOOTH",
"340 127 OFFCURVE",
"276 49 OFFCURVE",
"208 49 CURVE SMOOTH"
);
}
);
width = 603;
}
);
leftMetricsKey = o;
unicode = 0064;
},
{
glyphname = e;
layers = (
{
guideLines = (
{
angle = 78;
position = "{-11, 145}";
},
{
angle = 78;
position = "{110, 138}";
},
{
angle = 78;
position = "{394, 226}";
},
{
angle = -18;
position = "{393, 194}";
}
);
layerId = "FAAD249C-A758-4AF0-A41B-D5E315B1C41B";
paths = (
{
closed = 1;
nodes = (
"343 -13 OFFCURVE",
"415 50 OFFCURVE",
"458 160 CURVE",
"414 174 LINE",
"382 97 OFFCURVE",
"324 49 OFFCURVE",
"249 49 CURVE SMOOTH",
"156 49 OFFCURVE",
"142 141 OFFCURVE",
"142 209 CURVE",
"344 209 OFFCURVE",
"482 289 OFFCURVE",
"481 410 CURVE SMOOTH",
"481 464 OFFCURVE",
"431 540 OFFCURVE",
"302 538 CURVE SMOOTH",
"125 535 OFFCURVE",
"32 361 OFFCURVE",
"32 197 CURVE SMOOTH",
"32 78 OFFCURVE",
"99 -13 OFFCURVE",
"224 -13 CURVE SMOOTH"
);
},
{
closed = 1;
nodes = (
"168 387 OFFCURVE",
"232 482 OFFCURVE",
"311 482 CURVE SMOOTH",
"367 482 OFFCURVE",
"386 431 OFFCURVE",
"385 400 CURVE SMOOTH",
"383 306 OFFCURVE",
"268 262 OFFCURVE",
"147 262 CURVE"
);
}
);
width = 504;
}
);
leftMetricsKey = o;
rightMetricsKey = c;
unicode = 0065;
},
{
glyphname = f;
layers = (
{
guideLines = (
{
angle = 78;
position = "{278, 524}";
}
);
layerId = "FAAD249C-A758-4AF0-A41B-D5E315B1C41B";
paths = (
{
closed = 1;
nodes = (
"16 -228 OFFCURVE",
"64 -209 OFFCURVE",
"100 -166 CURVE SMOOTH",
"135 -124 OFFCURVE",
"156 -67 OFFCURVE",
"174 19 CURVE SMOOTH",
"270 467 LINE",
"422 467 LINE",
"438 524 LINE",
"278 524 LINE",
"308 673 OFFCURVE",
"327 709 OFFCURVE",
"394 709 CURVE SMOOTH",
"422 709 OFFCURVE",
"436 698 OFFCURVE",
"437 690 CURVE",
"412 690 OFFCURVE",
"394 670 OFFCURVE",
"394 642 CURVE SMOOTH",
"394 611 OFFCURVE",
"417 592 OFFCURVE",
"460 592 CURVE SMOOTH",
"499 592 OFFCURVE",
"526 621 OFFCURVE",
"526 661 CURVE SMOOTH",
"526 710 OFFCURVE",
"484 750 OFFCURVE",
"398 750 CURVE SMOOTH",
"269 750 OFFCURVE",
"203 669 OFFCURVE",
"176 524 CURVE",
"61 524 LINE",
"49 467 LINE",
"165 467 LINE",
"53 -62 LINE SMOOTH",
"34 -150 OFFCURVE",
"0 -187 OFFCURVE",
"-58 -187 CURVE SMOOTH",
"-69 -187 OFFCURVE",
"-88 -185 OFFCURVE",
"-101 -178 CURVE",
"-78 -171 OFFCURVE",
"-58 -151 OFFCURVE",
"-58 -119 CURVE SMOOTH",
"-58 -82 OFFCURVE",
"-83 -58 OFFCURVE",
"-124 -58 CURVE SMOOTH",
"-164 -58 OFFCURVE",
"-190 -87 OFFCURVE",
"-190 -137 CURVE SMOOTH",
"-190 -188 OFFCURVE",
"-146 -228 OFFCURVE",
"-52 -228 CURVE SMOOTH"
);
}
);
width = 443;
}
);
unicode = 0066;
},
{
glyphname = g;
layers = (
{
guideLines = (
{
angle = 78;
position = "{36, 263}";
}
);
layerId = "FAAD249C-A758-4AF0-A41B-D5E315B1C41B";
paths = (
{
closed = 1;
nodes = (
"311 -95 OFFCURVE",
"242 -187 OFFCURVE",
"141 -187 CURVE SMOOTH",
"103 -187 OFFCURVE",
"73 -177 OFFCURVE",
"60 -161 CURVE",
"75 -161 OFFCURVE",
"118 -151 OFFCURVE",
"118 -104 CURVE SMOOTH",
"118 -69 OFFCURVE",
"90 -46 OFFCURVE",
"52 -46 CURVE SMOOTH",
"5 -46 OFFCURVE",
"-13 -83 OFFCURVE",
"-13 -114 CURVE SMOOTH",
"-13 -198 OFFCURVE",
"63 -238 OFFCURVE",
"149 -238 CURVE SMOOTH",
"299 -238 OFFCURVE",
"405 -127 OFFCURVE",
"441 44 CURVE SMOOTH",
"544 524 LINE",
"491 524 LINE",
"422 425 LINE",
"422 514 OFFCURVE",
"346 538 OFFCURVE",
"291 538 CURVE SMOOTH",
"177 538 OFFCURVE",
"70 426 OFFCURVE",
"36 262 CURVE SMOOTH",
"3 103 OFFCURVE",
"58 -13 OFFCURVE",
"175 -13 CURVE SMOOTH",
"249 -13 OFFCURVE",
"314 33 OFFCURVE",
"348 95 CURVE",
"352 95 LINE",
"334 14 LINE SMOOTH"
);
},
{
closed = 1;
nodes = (
"140 49 OFFCURVE",
"123 151 OFFCURVE",
"146 256 CURVE SMOOTH",
"172 376 OFFCURVE",
"217 480 OFFCURVE",
"304 480 CURVE SMOOTH",
"397 480 OFFCURVE",
"405 380 OFFCURVE",
"378 256 CURVE SMOOTH",
"350 127 OFFCURVE",
"281 49 OFFCURVE",
"213 49 CURVE SMOOTH"
);
}
);
width = 548;
}
);
leftMetricsKey = o;
unicode = 0067;
},
{
glyphname = h;
layers = (
{
guideLines = (
{
angle = 78;
position = "{404, 357}";
},
{
angle = -18;
position = "{196, 185}";
}
);
layerId = "FAAD249C-A758-4AF0-A41B-D5E315B1C41B";
paths = (
{
closed = 1;
nodes = (
"377 138 LINE",
"360 56 OFFCURVE",
"394 -13 OFFCURVE",
"467 -13 CURVE SMOOTH",
"556 -13 OFFCURVE",
"591 46 OFFCURVE",
"615 153 CURVE",
"619 171 LINE",
"570 187 LINE",
"560 143 LINE",
"547 85 OFFCURVE",
"533 46 OFFCURVE",
"503 46 CURVE SMOOTH",
"472 46 OFFCURVE",
"472 93 OFFCURVE",
"482 138 CURVE SMOOTH",
"528 353 LINE SMOOTH",
"553 469 OFFCURVE",
"516 538 OFFCURVE",
"419 538 CURVE SMOOTH",
"343 538 OFFCURVE",
"268 463 OFFCURVE",
"224 348 CURVE",
"306 735 LINE",
"105 735 LINE",
"92 675 LINE",
"188 675 LINE",
"45 0 LINE",
"150 0 LINE",
"190 187 OFFCURVE",
"283 469 OFFCURVE",
"380 469 CURVE SMOOTH",
"423 469 OFFCURVE",
"440 433 OFFCURVE",
"424 357 CURVE SMOOTH"
);
}
);
width = 650;
}
);
rightMetricsKey = n;
unicode = 0068;
},
{
glyphname = i;
layers = (
{
guideLines = (
{
angle = 78;
position = "{92, 138}";
},
{
angle = 90;
position = "{200, 389}";
},
{
angle = -18;
position = "{105, 377}";
}
);
layerId = "FAAD249C-A758-4AF0-A41B-D5E315B1C41B";
paths = (
{
closed = 1;
nodes = (
"289 394 LINE",
"311 488 OFFCURVE",
"269 543 OFFCURVE",
"195 543 CURVE SMOOTH",
"111 543 OFFCURVE",
"76 484 OFFCURVE",
"52 394 CURVE",
"105 377 LINE",
"120 445 OFFCURVE",
"140 493 OFFCURVE",
"175 493 CURVE SMOOTH",
"210 493 OFFCURVE",
"199 437 OFFCURVE",
"186 392 CURVE SMOOTH",
"114 139 LINE SMOOTH",
"86 41 OFFCURVE",
"139 -13 OFFCURVE",
"213 -13 CURVE SMOOTH",
"294 -13 OFFCURVE",
"333 45 OFFCURVE",
"356 153 CURVE SMOOTH",
"366 200 LINE",
"317 216 LINE",
"301 143 LINE SMOOTH",
"288 85 OFFCURVE",
"266 46 OFFCURVE",
"234 46 CURVE SMOOTH",
"199 46 OFFCURVE",
"204 93 OFFCURVE",
"217 138 CURVE SMOOTH"
);
},
{
closed = 1;
nodes = (
"325 605 OFFCURVE",
"359 638 OFFCURVE",
"359 677 CURVE SMOOTH",
"359 717 OFFCURVE",
"325 750 OFFCURVE",
"286 750 CURVE SMOOTH",
"247 750 OFFCURVE",
"214 718 OFFCURVE",
"214 677 CURVE SMOOTH",
"214 638 OFFCURVE",
"247 605 OFFCURVE",
"286 605 CURVE SMOOTH"
);
}
);
width = 391;
}
);
leftMetricsKey = n;
rightMetricsKey = n;
unicode = 0069;
},
{
glyphname = j;
layers = (
{
guideLines = (
{
angle = 78;
position = "{148, 385}";
},
{
angle = 78;
position = "{252, 385}";
},
{
angle = -18;
position = "{44, 307}";
}
);
layerId = "FAAD249C-A758-4AF0-A41B-D5E315B1C41B";
paths = (
{
closed = 1;
nodes = (
"53 -62 LINE SMOOTH",
"34 -150 OFFCURVE",
"0 -187 OFFCURVE",
"-58 -187 CURVE SMOOTH",
"-69 -187 OFFCURVE",
"-88 -185 OFFCURVE",
"-101 -178 CURVE",
"-78 -171 OFFCURVE",
"-58 -151 OFFCURVE",
"-58 -119 CURVE SMOOTH",
"-58 -82 OFFCURVE",
"-83 -58 OFFCURVE",
"-124 -58 CURVE SMOOTH",
"-164 -58 OFFCURVE",
"-190 -87 OFFCURVE",
"-190 -137 CURVE SMOOTH",
"-190 -188 OFFCURVE",
"-146 -228 OFFCURVE",
"-52 -228 CURVE SMOOTH",
"16 -228 OFFCURVE",
"64 -209 OFFCURVE",
"100 -166 CURVE SMOOTH",
"135 -124 OFFCURVE",
"155 -67 OFFCURVE",
"174 19 CURVE SMOOTH",
"253 383 LINE SMOOTH",
"270 463 OFFCURVE",
"240 536 OFFCURVE",
"163 536 CURVE SMOOTH",
"69 536 OFFCURVE",
"29 477 OFFCURVE",
"5 370 CURVE",
"-5 323 LINE",
"44 307 LINE",
"60 380 LINE SMOOTH",
"73 438 OFFCURVE",
"97 477 OFFCURVE",
"128 477 CURVE SMOOTH",
"161 477 OFFCURVE",
"158 430 OFFCURVE",
"148 385 CURVE SMOOTH"
);
},
{
closed = 1;
nodes = (
"270 605 OFFCURVE",
"304 638 OFFCURVE",
"304 677 CURVE SMOOTH",
"304 717 OFFCURVE",
"270 750 OFFCURVE",
"231 750 CURVE SMOOTH",
"192 750 OFFCURVE",
"159 718 OFFCURVE",
"159 677 CURVE SMOOTH",
"159 638 OFFCURVE",
"192 605 OFFCURVE",
"231 605 CURVE SMOOTH"
);
}
);
width = 263;
}
);
leftMetricsKey = f;
rightMetricsKey = o;
unicode = 006A;
},
{
glyphname = k;
layers = (
{
guideLines = (
{
angle = 78;
position = "{150, 0}";
},
{
angle = -18;
position = "{560, 187}";
}
);
layerId = "FAAD249C-A758-4AF0-A41B-D5E315B1C41B";
paths = (
{
closed = 1;
nodes = (
"540 143 LINE",
"527 85 OFFCURVE",
"509 46 OFFCURVE",
"485 46 CURVE SMOOTH",
"460 46 OFFCURVE",
"457 67 OFFCURVE",
"457 106 CURVE SMOOTH",
"457 149 OFFCURVE",
"449 215 OFFCURVE",
"391 242 CURVE",
"475 260 OFFCURVE",
"556 342 OFFCURVE",
"556 420 CURVE SMOOTH",
"556 474 OFFCURVE",
"526 538 OFFCURVE",
"429 538 CURVE SMOOTH",
"332 538 OFFCURVE",
"268 448 OFFCURVE",
"232 368 CURVE",
"228 368 LINE",
"306 735 LINE",
"105 735 LINE",
"92 675 LINE",
"188 675 LINE",
"45 0 LINE",
"150 0 LINE",
"195 214 LINE",
"299 232 OFFCURVE",
"353 186 OFFCURVE",
"353 99 CURVE SMOOTH",
"353 26 OFFCURVE",
"385 -13 OFFCURVE",
"457 -13 CURVE SMOOTH",
"542 -13 OFFCURVE",
"571 47 OFFCURVE",
"595 153 CURVE",
"599 171 LINE",
"550 187 LINE"
);
},
{
closed = 1;
nodes = (
"443 469 OFFCURVE",
"460 438 OFFCURVE",
"460 410 CURVE SMOOTH",
"460 318 OFFCURVE",
"328 263 OFFCURVE",
"218 258 CURVE",
"269 381 OFFCURVE",
"329 469 OFFCURVE",
"400 469 CURVE SMOOTH"
);
}
);
width = 630;
}
);
leftMetricsKey = h;
rightMetricsKey = h;
unicode = 006B;
},
{
glyphname = l;
layers = (
{
guideLines = (
{
angle = 78;
position = "{196, 675}";
},
{
angle = -18;
position = "{294, 187}";
}
);
layerId = "FAAD249C-A758-4AF0-A41B-D5E315B1C41B";
paths = (
{
closed = 1;
nodes = (
"67 63 OFFCURVE",
"94 -13 OFFCURVE",
"191 -13 CURVE SMOOTH",
"255 -13 OFFCURVE",
"294 28 OFFCURVE",
"316 137 CURVE SMOOTH",
"323 171 LINE",
"274 187 LINE",
"263 138 LINE SMOOTH",
"250 81 OFFCURVE",
"231 46 OFFCURVE",
"204 46 CURVE SMOOTH",
"173 46 OFFCURVE",
"176 93 OFFCURVE",
"186 138 CURVE SMOOTH",
"314 735 LINE",
"113 735 LINE",
"100 675 LINE",
"196 675 LINE",
"82 136 LINE SMOOTH"
);
}
);
width = 369;
}
);
unicode = 006C;
},
{
glyphname = m;
layers = (
{
guideLines = (
{
position = "{939, 187}";
},
{
position = "{939, 309}";
},
{
angle = -18;
position = "{564, 218}";
}
);
layerId = "FAAD249C-A758-4AF0-A41B-D5E315B1C41B";
paths = (
{
closed = 1;
nodes = (
"908 143 LINE",
"895 85 OFFCURVE",
"876 46 OFFCURVE",
"851 46 CURVE SMOOTH",
"820 46 OFFCURVE",
"830 93 OFFCURVE",
"840 138 CURVE SMOOTH",
"886 353 LINE SMOOTH",
"911 469 OFFCURVE",
"886 538 OFFCURVE",
"789 538 CURVE SMOOTH",
"702 538 OFFCURVE",
"627 453 OFFCURVE",
"587 353 CURVE",
"612 469 OFFCURVE",
"592 538 OFFCURVE",
"495 538 CURVE SMOOTH",
"418 538 OFFCURVE",
"337 462 OFFCURVE",
"287 348 CURVE",
"301 416 LINE SMOOTH",
"313 474 OFFCURVE",
"282 538 OFFCURVE",
"205 538 CURVE SMOOTH",
"111 538 OFFCURVE",
"71 479 OFFCURVE",
"47 372 CURVE",
"37 325 LINE",
"86 309 LINE",
"102 382 LINE",
"115 440 OFFCURVE",
"143 479 OFFCURVE",
"174 479 CURVE SMOOTH",
"207 479 OFFCURVE",
"200 432 OFFCURVE",
"190 387 CURVE SMOOTH",
"108 0 LINE",
"213 0 LINE",
"259 220 OFFCURVE",
"359 469 OFFCURVE",
"456 469 CURVE SMOOTH",
"499 469 OFFCURVE",
"504 433 OFFCURVE",
"488 357 CURVE SMOOTH",
"412 0 LINE",
"512 0 LINE",
"558 220 OFFCURVE",
"653 469 OFFCURVE",
"750 469 CURVE SMOOTH",
"793 469 OFFCURVE",
"798 433 OFFCURVE",
"782 357 CURVE SMOOTH",
"735 138 LINE SMOOTH",
"717 56 OFFCURVE",
"747 -13 OFFCURVE",
"820 -13 CURVE SMOOTH",
"904 -13 OFFCURVE",
"941 46 OFFCURVE",
"963 153 CURVE",
"967 171 LINE",
"918 187 LINE"
);
}
);
width = 998;
}
);
leftMetricsKey = n;
rightMetricsKey = n;
unicode = 006D;
},
{
glyphname = n;
layers = (
{
guideLines = (
{
angle = 78;
position = "{208, 0}";
},
{
position = "{282, 348}";
},
{
angle = -18;
position = "{255, 222}";
}
);
layerId = "FAAD249C-A758-4AF0-A41B-D5E315B1C41B";
paths = (
{
closed = 1;
nodes = (
"308 473 OFFCURVE",
"277 538 OFFCURVE",
"205 538 CURVE SMOOTH",
"116 538 OFFCURVE",
"71 479 OFFCURVE",
"47 372 CURVE",
"37 325 LINE",
"86 309 LINE",
"102 382 LINE",
"115 440 OFFCURVE",
"143 469 OFFCURVE",
"169 469 CURVE SMOOTH",
"197 469 OFFCURVE",
"195 432 OFFCURVE",
"185 387 CURVE SMOOTH",
"103 0 LINE",
"208 0 LINE",
"255 222 OFFCURVE",
"354 469 OFFCURVE",
"451 469 CURVE SMOOTH",
"494 469 OFFCURVE",
"499 433 OFFCURVE",
"483 357 CURVE SMOOTH",
"436 138 LINE",
"419 56 OFFCURVE",
"448 -13 OFFCURVE",
"521 -13 CURVE SMOOTH",
"605 -13 OFFCURVE",
"640 46 OFFCURVE",
"664 153 CURVE",
"668 171 LINE",
"619 187 LINE",
"609 143 LINE",
"596 85 OFFCURVE",
"577 46 OFFCURVE",
"552 46 CURVE SMOOTH",
"521 46 OFFCURVE",
"531 93 OFFCURVE",
"541 138 CURVE SMOOTH",
"587 353 LINE SMOOTH",
"612 469 OFFCURVE",
"587 538 OFFCURVE",
"490 538 CURVE SMOOTH",
"413 538 OFFCURVE",
"332 462 OFFCURVE",
"282 348 CURVE",
"296 416 LINE"
);
}
);
width = 699;
}
);
unicode = 006E;
},
{
glyphname = o;
layers = (
{
layerId = "FAAD249C-A758-4AF0-A41B-D5E315B1C41B";
paths = (
{
closed = 1;
nodes = (
"357 -13 OFFCURVE",
"455 104 OFFCURVE",
"491 262 CURVE SMOOTH",
"525 419 OFFCURVE",
"463 538 OFFCURVE",
"315 538 CURVE SMOOTH",
"174 538 OFFCURVE",
"72 426 OFFCURVE",
"36 262 CURVE SMOOTH",
"0 103 OFFCURVE",
"69 -13 OFFCURVE",
"213 -13 CURVE SMOOTH"
);
},
{
closed = 1;
nodes = (
"148 40 OFFCURVE",
"122 124 OFFCURVE",
"152 256 CURVE SMOOTH",
"180 383 OFFCURVE",
"224 489 OFFCURVE",
"308 489 CURVE SMOOTH",
"395 489 OFFCURVE",
"400 386 OFFCURVE",
"371 256 CURVE SMOOTH",
"342 124 OFFCURVE",
"288 40 OFFCURVE",
"222 40 CURVE SMOOTH"
);
}
);
width = 527;
}
);
unicode = 006F;
},
{
glyphname = p;
layers = (
{
guideLines = (
{
position = "{-9, -136}";
},
{
angle = 78;
position = "{67, 372}";
},
{
angle = -18;
position = "{76, 309}";
}
);
layerId = "FAAD249C-A758-4AF0-A41B-D5E315B1C41B";
paths = (
{
closed = 1;
nodes = (
"102 382 LINE",
"115 440 OFFCURVE",
"136 479 OFFCURVE",
"164 479 CURVE SMOOTH",
"197 479 OFFCURVE",
"191 432 OFFCURVE",
"181 387 CURVE SMOOTH",
"69 -136 LINE",
"-7 -136 LINE",
"-20 -196 LINE",
"277 -196 LINE",
"290 -136 LINE",
"174 -136 LINE",
"218 70 LINE",
"233 8 OFFCURVE",
"277 -13 OFFCURVE",
"332 -13 CURVE SMOOTH",
"446 -13 OFFCURVE",
"553 99 OFFCURVE",
"587 263 CURVE SMOOTH",
"620 422 OFFCURVE",
"565 538 OFFCURVE",
"448 538 CURVE SMOOTH",
"374 538 OFFCURVE",
"309 492 OFFCURVE",
"275 430 CURVE",
"271 430 LINE",
"271 486 OFFCURVE",
"245 538 OFFCURVE",
"183 538 CURVE SMOOTH",
"105 538 OFFCURVE",
"70 479 OFFCURVE",
"47 372 CURVE",
"37 325 LINE",
"86 309 LINE"
);
},
{
closed = 1;
nodes = (
"486 476 OFFCURVE",
"501 374 OFFCURVE",
"478 269 CURVE SMOOTH",
"452 149 OFFCURVE",
"409 45 OFFCURVE",
"325 45 CURVE SMOOTH",
"242 45 OFFCURVE",
"234 145 OFFCURVE",
"261 269 CURVE SMOOTH",
"289 398 OFFCURVE",
"348 476 OFFCURVE",
"416 476 CURVE SMOOTH"
);
}
);
width = 623;
}
);
leftMetricsKey = n;
rightMetricsKey = o;
unicode = 0070;
},
{
glyphname = q;
layers = (
{
layerId = "FAAD249C-A758-4AF0-A41B-D5E315B1C41B";
paths = (
{
closed = 1;
nodes = (
"491 524 LINE",
"422 425 LINE",
"422 514 OFFCURVE",
"346 538 OFFCURVE",
"291 538 CURVE SMOOTH",
"177 538 OFFCURVE",
"70 426 OFFCURVE",
"36 262 CURVE SMOOTH",
"3 103 OFFCURVE",
"58 -13 OFFCURVE",
"175 -13 CURVE SMOOTH",
"249 -13 OFFCURVE",
"314 33 OFFCURVE",
"348 95 CURVE",
"352 95 LINE",
"302 -136 LINE",
"201 -136 LINE",
"188 -196 LINE",
"485 -196 LINE",
"498 -136 LINE",
"402 -136 LINE",
"544 524 LINE"
);
},
{
closed = 1;
nodes = (
"140 49 OFFCURVE",
"123 151 OFFCURVE",
"146 256 CURVE SMOOTH",
"172 376 OFFCURVE",
"217 480 OFFCURVE",
"304 480 CURVE SMOOTH",
"397 480 OFFCURVE",
"405 380 OFFCURVE",
"378 256 CURVE SMOOTH",
"350 127 OFFCURVE",
"281 49 OFFCURVE",
"213 49 CURVE SMOOTH"
);
}
);
width = 583;
}
);
leftMetricsKey = o;
rightMetricsKey = a;
unicode = 0071;
},
{
glyphname = r;
layers = (
{
guideLines = (
{
angle = 78;
position = "{203, 0}";
},
{
position = "{224, 469}";
},
{
angle = 90;
position = "{557, 0}";
},
{
position = "{277, 348}";
},
{
angle = -18;
position = "{86, 309}";
},
{
angle = -18;
position = "{255, 222}";
}
);
layerId = "FAAD249C-A758-4AF0-A41B-D5E315B1C41B";
paths = (
{
closed = 1;
nodes = (
"373 539 OFFCURVE",
"306 425 OFFCURVE",
"277 348 CURVE",
"305 482 OFFCURVE",
"272 536 OFFCURVE",
"200 536 CURVE SMOOTH",
"111 536 OFFCURVE",
"70 477 OFFCURVE",
"47 370 CURVE",
"37 325 LINE",
"86 309 LINE",
"102 380 LINE",
"115 438 OFFCURVE",
"133 479 OFFCURVE",
"164 479 CURVE SMOOTH",
"197 479 OFFCURVE",
"190 430 OFFCURVE",
"180 385 CURVE SMOOTH",
"98 0 LINE",
"203 0 LINE",
"250 223 OFFCURVE",
"334 469 OFFCURVE",
"444 477 CURVE",
"397 441 OFFCURVE",
"418 363 OFFCURVE",
"485 363 CURVE SMOOTH",
"539 363 OFFCURVE",
"558 402 OFFCURVE",
"558 445 CURVE SMOOTH",
"558 497 OFFCURVE",
"530 539 OFFCURVE",
"463 539 CURVE SMOOTH"
);
}
);
width = 546;
}
);
leftMetricsKey = n;
rightMetricsKey = c;
unicode = 0072;
},
{
glyphname = s;
layers = (
{
layerId = "FAAD249C-A758-4AF0-A41B-D5E315B1C41B";
paths = (
{
closed = 1;
nodes = (
"313 -13 OFFCURVE",
"416 30 OFFCURVE",
"425 136 CURVE SMOOTH",
"431 209 OFFCURVE",
"380 261 OFFCURVE",
"291 307 CURVE SMOOTH",
"223 342 OFFCURVE",
"157 367 OFFCURVE",
"167 412 CURVE SMOOTH",
"179 465 OFFCURVE",
"226 486 OFFCURVE",
"283 486 CURVE SMOOTH",
"333 486 OFFCURVE",
"361 475 OFFCURVE",
"385 452 CURVE",
"354 449 OFFCURVE",
"337 423 OFFCURVE",
"337 395 CURVE SMOOTH",
"337 356 OFFCURVE",
"366 335 OFFCURVE",
"403 335 CURVE SMOOTH",
"437 335 OFFCURVE",
"469 365 OFFCURVE",
"469 408 CURVE SMOOTH",
"469 487 OFFCURVE",
"378 538 OFFCURVE",
"288 538 CURVE SMOOTH",
"203 538 OFFCURVE",
"95 497 OFFCURVE",
"74 402 CURVE SMOOTH",
"56 320 OFFCURVE",
"123 285 OFFCURVE",
"209 240 CURVE SMOOTH",
"289 198 OFFCURVE",
"329 171 OFFCURVE",
"329 124 CURVE SMOOTH",
"329 63 OFFCURVE",
"269 43 OFFCURVE",
"205 43 CURVE SMOOTH",
"142 43 OFFCURVE",
"98 76 OFFCURVE",
"98 95 CURVE",
"122 95 OFFCURVE",
"152 112 OFFCURVE",
"152 152 CURVE SMOOTH",
"152 191 OFFCURVE",
"123 211 OFFCURVE",
"86 211 CURVE SMOOTH",
"51 211 OFFCURVE",
"10 182 OFFCURVE",
"10 129 CURVE SMOOTH",
"10 53 OFFCURVE",
"92 -13 OFFCURVE",
"206 -13 CURVE SMOOTH"
);
}
);
width = 489;
}
);
leftMetricsKey = o;
rightMetricsKey = o;
unicode = 0073;
},
{
glyphname = t;
layers = (
{
guideLines = (
{
angle = 78;
position = "{371, 392}";
},
{
angle = -18;
position = "{284, 216}";
}
);
layerId = "FAAD249C-A758-4AF0-A41B-D5E315B1C41B";
paths = (
{
closed = 1;
nodes = (
"386 468 LINE",
"398 524 LINE",
"261 524 LINE",
"303 718 LINE SMOOTH",
"305 729 OFFCURVE",
"300 735 OFFCURVE",
"293 735 CURVE SMOOTH",
"288 735 OFFCURVE",
"277 730 OFFCURVE",
"271 714 CURVE SMOOTH",
"265 698 OFFCURVE",
"226 623 OFFCURVE",
"203 595 CURVE SMOOTH",
"168 552 OFFCURVE",
"109 507 OFFCURVE",
"49 492 CURVE",
"45 469 LINE",
"144 469 LINE",
"62 109 LINE SMOOTH",
"46 41 OFFCURVE",
"91 -13 OFFCURVE",
"165 -13 CURVE SMOOTH",
"256 -13 OFFCURVE",
"300 46 OFFCURVE",
"323 153 CURVE SMOOTH",
"333 200 LINE",
"284 216 LINE",
"268 143 LINE SMOOTH",
"255 85 OFFCURVE",
"238 46 OFFCURVE",
"196 46 CURVE SMOOTH",
"161 46 OFFCURVE",
"164 93 OFFCURVE",
"174 138 CURVE SMOOTH",
"247 468 LINE"
);
}
);
width = 358;
}
);
rightMetricsKey = n;
unicode = 0074;
},
{
glyphname = u;
layers = (
{
guideLines = (
{
angle = 78;
position = "{456, 276}";
},
{
position = "{929, 187}";
},
{
position = "{929, 309}";
},
{
angle = -18;
position = "{629, 177}";
}
);
layerId = "FAAD249C-A758-4AF0-A41B-D5E315B1C41B";
paths = (
{
closed = 1;
nodes = (
"405 41 OFFCURVE",
"434 -13 OFFCURVE",
"516 -13 CURVE SMOOTH",
"595 -13 OFFCURVE",
"630 45 OFFCURVE",
"654 152 CURVE",
"658 171 LINE",
"609 187 LINE",
"599 142 LINE SMOOTH",
"586 84 OFFCURVE",
"563 45 OFFCURVE",
"537 45 CURVE SMOOTH",
"509 45 OFFCURVE",
"521 92 OFFCURVE",
"531 137 CURVE SMOOTH",
"613 524 LINE",
"508 524 LINE",
"456 276 OFFCURVE",
"362 55 OFFCURVE",
"265 55 CURVE SMOOTH",
"222 55 OFFCURVE",
"215 91 OFFCURVE",
"233 166 CURVE SMOOTH",
"285 386 LINE",
"302 468 OFFCURVE",
"273 536 OFFCURVE",
"185 536 CURVE SMOOTH",
"106 536 OFFCURVE",
"71 477 OFFCURVE",
"47 371 CURVE",
"37 325 LINE",
"85 309 LINE",
"102 381 LINE",
"115 438 OFFCURVE",
"133 478 OFFCURVE",
"163 478 CURVE SMOOTH",
"199 478 OFFCURVE",
"191 431 OFFCURVE",
"180 386 CURVE SMOOTH",
"129 170 LINE SMOOTH",
"102 55 OFFCURVE",
"129 -13 OFFCURVE",
"226 -13 CURVE SMOOTH",
"313 -13 OFFCURVE",
"390 76 OFFCURVE",
"433 187 CURVE",
"437 187 LINE",
"420 108 LINE"
);
}
);
width = 689;
}
);
leftMetricsKey = n;
rightMetricsKey = n;
unicode = 0075;
},
{
glyphname = v;
layers = (
{
guideLines = (
{
angle = -18;
position = "{65, 309}";
}
);
layerId = "FAAD249C-A758-4AF0-A41B-D5E315B1C41B";
paths = (
{
closed = 1;
nodes = (
"548 503 OFFCURVE",
"516 536 OFFCURVE",
"477 536 CURVE SMOOTH",
"438 536 OFFCURVE",
"405 504 OFFCURVE",
"405 463 CURVE SMOOTH",
"405 420 OFFCURVE",
"438 386 OFFCURVE",
"487 392 CURVE",
"503 240 OFFCURVE",
"392 55 OFFCURVE",
"285 55 CURVE SMOOTH",
"232 55 OFFCURVE",
"205 91 OFFCURVE",
"223 166 CURVE SMOOTH",
"275 386 LINE SMOOTH",
"294 467 OFFCURVE",
"268 536 OFFCURVE",
"180 536 CURVE SMOOTH",
"101 536 OFFCURVE",
"71 477 OFFCURVE",
"47 371 CURVE",
"37 325 LINE",
"85 309 LINE",
"102 381 LINE",
"115 438 OFFCURVE",
"129 478 OFFCURVE",
"159 478 CURVE SMOOTH",
"195 478 OFFCURVE",
"181 431 OFFCURVE",
"170 386 CURVE SMOOTH",
"119 170 LINE SMOOTH",
"92 55 OFFCURVE",
"139 -13 OFFCURVE",
"246 -13 CURVE SMOOTH",
"427 -13 OFFCURVE",
"581 240 OFFCURVE",
"553 463 CURVE SMOOTH"
);
}
);
width = 568;
}
);
leftMetricsKey = n;
unicode = 0076;
},
{
glyphname = w;
layers = (
{
guideLines = (
{
angle = 78;
position = "{455, 181}";
},
{
angle = -18;
position = "{75, 309}";
}
);
layerId = "FAAD249C-A758-4AF0-A41B-D5E315B1C41B";
paths = (
{
closed = 1;
nodes = (
"857 503 OFFCURVE",
"825 536 OFFCURVE",
"786 536 CURVE SMOOTH",
"747 536 OFFCURVE",
"714 504 OFFCURVE",
"714 463 CURVE SMOOTH",
"714 420 OFFCURVE",
"747 386 OFFCURVE",
"796 392 CURVE",
"812 240 OFFCURVE",
"711 55 OFFCURVE",
"584 55 CURVE SMOOTH",
"526 55 OFFCURVE",
"514 105 OFFCURVE",
"527 166 CURVE SMOOTH",
"603 524 LINE",
"498 524 LINE",
"455 320 LINE",
"436 233 OFFCURVE",
"351 55 OFFCURVE",
"265 55 CURVE SMOOTH",
"222 55 OFFCURVE",
"215 91 OFFCURVE",
"233 166 CURVE SMOOTH",
"285 386 LINE SMOOTH",
"302 468 OFFCURVE",
"273 536 OFFCURVE",
"195 536 CURVE SMOOTH",
"106 536 OFFCURVE",
"71 477 OFFCURVE",
"47 371 CURVE",
"37 325 LINE",
"85 309 LINE",
"102 381 LINE",
"115 438 OFFCURVE",
"134 478 OFFCURVE",
"164 478 CURVE SMOOTH",
"200 478 OFFCURVE",
"191 431 OFFCURVE",
"180 386 CURVE SMOOTH",
"129 170 LINE SMOOTH",
"102 55 OFFCURVE",
"139 -13 OFFCURVE",
"236 -13 CURVE SMOOTH",
"321 -13 OFFCURVE",
"401 73 OFFCURVE",
"435 181 CURVE",
"404 53 OFFCURVE",
"456 -13 OFFCURVE",
"565 -13 CURVE SMOOTH",
"746 -13 OFFCURVE",
"890 240 OFFCURVE",
"862 463 CURVE SMOOTH"
);
}
);
width = 878;
}
);
leftMetricsKey = v;
rightMetricsKey = v;
unicode = 0077;
},
{
glyphname = x;
layers = (
{
guideLines = (
{
angle = 78;
position = "{284, 326}";
},
{
angle = 78;
position = "{386, 326}";
},
{
angle = 78;
position = "{634, 326}";
}
);
layerId = "FAAD249C-A758-4AF0-A41B-D5E315B1C41B";
paths = (
{
closed = 1;
nodes = (
"208 101 OFFCURVE",
"162 39 OFFCURVE",
"133 39 CURVE",
"160 65 OFFCURVE",
"154 153 OFFCURVE",
"77 153 CURVE SMOOTH",
"23 153 OFFCURVE",
"-1 114 OFFCURVE",
"-1 81 CURVE SMOOTH",
"-1 29 OFFCURVE",
"37 -13 OFFCURVE",
"104 -13 CURVE SMOOTH",
"189 -13 OFFCURVE",
"224 69 OFFCURVE",
"264 137 CURVE",
"263 54 OFFCURVE",
"305 -13 OFFCURVE",
"389 -13 CURVE SMOOTH",
"478 -13 OFFCURVE",
"536 50 OFFCURVE",
"569 160 CURVE",
"525 174 LINE",
"503 97 OFFCURVE",
"479 49 OFFCURVE",
"424 49 CURVE SMOOTH",
"338 49 OFFCURVE",
"360 195 OFFCURVE",
"387 321 CURVE",
"435 424 OFFCURVE",
"481 487 OFFCURVE",
"510 487 CURVE",
"483 461 OFFCURVE",
"489 373 OFFCURVE",
"566 373 CURVE SMOOTH",
"620 373 OFFCURVE",
"644 412 OFFCURVE",
"644 445 CURVE SMOOTH",
"644 497 OFFCURVE",
"616 539 OFFCURVE",
"549 539 CURVE SMOOTH",
"464 539 OFFCURVE",
"419 457 OFFCURVE",
"379 389 CURVE",
"378 475 OFFCURVE",
"338 540 OFFCURVE",
"254 540 CURVE SMOOTH",
"165 540 OFFCURVE",
"107 477 OFFCURVE",
"74 367 CURVE",
"118 353 LINE",
"140 430 OFFCURVE",
"164 478 OFFCURVE",
"219 478 CURVE SMOOTH",
"305 478 OFFCURVE",
"283 330 OFFCURVE",
"259 216 CURVE"
);
}
);
width = 643;
}
);
leftMetricsKey = o;
rightMetricsKey = o;
unicode = 0078;
},
{
glyphname = y;
layers = (
{
guideLines = (
{
angle = 78;
position = "{448, 321}";
},
{
angle = -18;
position = "{58, 308}";
}
);
layerId = "FAAD249C-A758-4AF0-A41B-D5E315B1C41B";
paths = (
{
closed = 1;
nodes = (
"84 55 OFFCURVE",
"106 -13 OFFCURVE",
"208 -13 CURVE SMOOTH",
"295 -13 OFFCURVE",
"373 76 OFFCURVE",
"419 187 CURVE",
"383 14 LINE",
"359 -97 OFFCURVE",
"302 -177 OFFCURVE",
"195 -177 CURVE SMOOTH",
"163 -177 OFFCURVE",
"121 -171 OFFCURVE",
"113 -161 CURVE",
"128 -162 OFFCURVE",
"168 -144 OFFCURVE",
"168 -99 CURVE SMOOTH",
"168 -68 OFFCURVE",
"140 -41 OFFCURVE",
"102 -41 CURVE SMOOTH",
"55 -41 OFFCURVE",
"36 -79 OFFCURVE",
"36 -109 CURVE SMOOTH",
"36 -191 OFFCURVE",
"113 -228 OFFCURVE",
"199 -228 CURVE SMOOTH",
"349 -228 OFFCURVE",
"455 -127 OFFCURVE",
"491 44 CURVE SMOOTH",
"594 524 LINE",
"491 524 LINE",
"439 276 OFFCURVE",
"344 55 OFFCURVE",
"247 55 CURVE SMOOTH",
"204 55 OFFCURVE",
"197 91 OFFCURVE",
"215 166 CURVE SMOOTH",
"227 216 OFFCURVE",
"240 256 OFFCURVE",
"267 386 CURVE SMOOTH",
"284 468 OFFCURVE",
"255 536 OFFCURVE",
"177 536 CURVE SMOOTH",
"88 536 OFFCURVE",
"53 478 OFFCURVE",
"29 371 CURVE",
"19 324 LINE",
"68 308 LINE",
"84 381 LINE SMOOTH",
"97 439 OFFCURVE",
"116 478 OFFCURVE",
"148 478 CURVE SMOOTH",
"182 478 OFFCURVE",
"175 441 OFFCURVE",
"162 386 CURVE",
"111 170 LINE"
);
}
);
width = 544;
}
);
unicode = 0079;
},
{
glyphname = z;
layers = (
{
guideLines = (
{
angle = 135;
position = "{80, 128}";
}
);
layerId = "FAAD249C-A758-4AF0-A41B-D5E315B1C41B";
paths = (
{
closed = 1;
nodes = (
"441 414 OFFCURVE",
"399 422 OFFCURVE",
"344 466 CURVE SMOOTH",
"296 504 OFFCURVE",
"262 539 OFFCURVE",
"191 539 CURVE SMOOTH",
"117 539 OFFCURVE",
"53 490 OFFCURVE",
"53 363 CURVE",
"53 330 LINE",
"108 330 LINE",
"108 363 LINE",
"108 429 OFFCURVE",
"154 440 OFFCURVE",
"191 440 CURVE SMOOTH",
"236 440 OFFCURVE",
"269 422 OFFCURVE",
"310 406 CURVE SMOOTH",
"350 390 OFFCURVE",
"383 383 OFFCURVE",
"445 398 CURVE",
"371 364 OFFCURVE",
"179 261 OFFCURVE",
"72 167 CURVE",
"31 131 OFFCURVE",
"4 91 OFFCURVE",
"4 44 CURVE SMOOTH",
"4 9 OFFCURVE",
"30 -13 OFFCURVE",
"58 -13 CURVE SMOOTH",
"85 -13 OFFCURVE",
"113 5 OFFCURVE",
"113 36 CURVE SMOOTH",
"113 61 OFFCURVE",
"103 78 OFFCURVE",
"81 84 CURVE",
"87 116 OFFCURVE",
"146 104 OFFCURVE",
"201 60 CURVE SMOOTH",
"249 22 OFFCURVE",
"283 -13 OFFCURVE",
"354 -13 CURVE SMOOTH",
"428 -13 OFFCURVE",
"492 36 OFFCURVE",
"492 163 CURVE",
"492 196 LINE",
"437 196 LINE",
"437 163 LINE",
"437 97 OFFCURVE",
"391 86 OFFCURVE",
"354 86 CURVE SMOOTH",
"309 86 OFFCURVE",
"276 104 OFFCURVE",
"235 120 CURVE SMOOTH",
"195 136 OFFCURVE",
"162 143 OFFCURVE",
"90 128 CURVE",
"203 167 OFFCURVE",
"378 270 OFFCURVE",
"472 361 CURVE",
"508 396 OFFCURVE",
"531 435 OFFCURVE",
"531 481 CURVE SMOOTH",
"531 516 OFFCURVE",
"507 536 OFFCURVE",
"479 536 CURVE SMOOTH",
"443 536 OFFCURVE",
"425 511 OFFCURVE",
"425 486 CURVE SMOOTH",
"425 468 OFFCURVE",
"430 448 OFFCURVE",
"452 441 CURVE"
);
}
);
width = 544;
}
);
unicode = 007A;
},
